<svg id="Layer_1" data-name="Layer 1" xmlns="http://www.w3.org/2000/svg" viewBox="0 0 1242.84 205.23"><defs><style>.cls-1{fill:#231f20;}.cls-2{fill:#c60000;}</style></defs><title>JFIN Chain</title><path class="cls-1" d="M371.4,67.92V96.75h55.87v24.91H371.4v45.91H339.72V43h92.36V67.92Z"/><path class="cls-1" d="M465,167.57V43h31.68V167.57Z"/><path class="cls-1" d="M626.38,167.57,569.09,90.88v76.69H539.37V43h27.94l57.47,76.87V43h29.54V167.57Z"/><path class="cls-1" d="M308.17,125.75c0,26.52-16.55,41.82-43.06,41.82-17.62,0-31.85-7.3-42.89-19.93l14.6-21.18c8.89,9.26,18.86,13.88,26.15,13.88,8.37,0,13.35-5.16,13.35-15.3l.12-83.63h31.73Z"/><path class="cls-1" d="M787.43,62.93l-11.9,14.85c-8.8-9.5-21.4-15.36-33.65-15.36-24.16,0-43.14,18.63-43.14,42.45s19,42.62,43.14,42.62c12.08,0,24.5-5.52,33.65-14.32l12.08,13.46c-12.25,12.08-29.68,19.84-46.77,19.84C705.47,166.47,678,139.73,678,105c0-34.34,27.78-60.74,63.5-60.74A66.65,66.65,0,0,1,787.43,62.93Z"/><path class="cls-1" d="M896.76,165.61v-50h-64v50H812.38V44.81h20.36V97.28h64V44.81h20.36v120.8Z"/><path class="cls-1" d="M970,138.35l-11.56,27.26H937.23l53.33-120.8h20.88l52.8,120.8H1042.5l-11.56-27.26Zm30.37-71.79-22.78,53.67h45.56Z"/><path class="cls-1" d="M1082.72,165.61V44.81h20.37v120.8Z"/><path class="cls-1" d="M1222.82,165.61,1158.45,79v86.63h-20.36V44.81h20l64.71,86.81V44.81h20v120.8Z"/><path class="cls-2" d="M65.1,198.13A102.38,102.38,0,0,0,181,37.23a10.89,10.89,0,1,0-16.73,13.94,80.58,80.58,0,1,1-71-28.45A10.89,10.89,0,0,0,90.79,1.09,102.2,102.2,0,0,0,7.1,65.49a102.37,102.37,0,0,0,58,132.64Z"/><path class="cls-2" d="M122.81,28.84A16.87,16.87,0,1,0,122.73,5l-.09.09A16.78,16.78,0,0,0,122.81,28.84Z"/><path class="cls-1" d="M119.93,41.05h31.19v83.36c0,13.38-4.58,24.55-13.55,33.16-9.16,8.61-20.89,13-35,13-14.29,0-26-4.4-35.17-13s-13.74-19.78-13.74-33.16V120.2h31v5.31c0,10.26,7.33,17.22,17.77,17.22s17.59-7,17.59-17.22v-57Z"/></svg>